{
  "asset": {
    "generator": "Khronos glTF Blender I/O v1.5.17",
    "version": "2.0"
  },
  "scene": 0,
  "scenes": [
    {
      "name": "Scene",
      "nodes": [1]
    }
  ],
  "nodes": [
    {
      "mesh": 0,
      "name": "Mesh_0"
    },
    {
      "children": [0],
      "name": "LEVEL_2.obj"
    }
  ],
  "materials": [
    {
      "name": "palette",
      "pbrMetallicRoughness": {
        "metallicFactor": 0.5,
        "roughnessFactor": 0.5
      }
    }
  ],
  "meshes": [
    {
      "name": "Mesh_0",
      "primitives": [
        {
          "attributes": {
            "POSITION": 0,
            "NORMAL": 1,
            "TEXCOORD_0": 2
          },
          "indices": 3,
          "material": 0
        }
      ]
    }
  ],
  "accessors": [
    {
      "bufferView": 0,
      "componentType": 5126,
      "count": 1926,
      "max": [9.899999618530273, 1, 0],
      "min": [-9.899999618530273, 0, -0.10000000149011612],
      "type": "VEC3"
    },
    {
      "bufferView": 1,
      "componentType": 5126,
      "count": 1926,
      "type": "VEC3"
    },
    {
      "bufferView": 2,
      "componentType": 5126,
      "count": 1926,
      "type": "VEC2"
    },
    {
      "bufferView": 3,
      "componentType": 5123,
      "count": 3012,
      "type": "SCALAR"
    }
  ],
  "bufferViews": [
    {
      "buffer": 0,
      "byteLength": 23112,
      "byteOffset": 0
    },
    {
      "buffer": 0,
      "byteLength": 23112,
      "byteOffset": 23112
    },
    {
      "buffer": 0,
      "byteLength": 15408,
      "byteOffset": 46224
    },
    {
      "buffer": 0,
      "byteLength": 6024,
      "byteOffset": 61632
    }
  ],
  "buffers": [
    {
      "byteLength": 67656,
      "uri": "data:application/octet-stream;base64,"
    }
  ]
}
