{
  "asset": {
    "generator": "Khronos glTF Blender I/O v1.5.17",
    "version": "2.0"
  },
  "scene": 0,
  "scenes": [
    {
      "name": "Scene",
      "nodes": [0, 2]
    }
  ],
  "nodes": [
    {
      "name": "LEVEL_1.obj"
    },
    {
      "mesh": 0,
      "name": "Mesh_0",
      "translation": [0, -1, 0]
    },
    {
      "children": [1],
      "name": "LEVEL_1.obj.001",
      "translation": [0, 1.1687949895858765, 0]
    }
  ],
  "materials": [
    {
      "name": "palette",
      "pbrMetallicRoughness": {
        "metallicFactor": 0.5,
        "roughnessFactor": 0.5
      }
    }
  ],
  "meshes": [
    {
      "name": "Mesh_0",
      "primitives": [
        {
          "attributes": {
            "POSITION": 0,
            "NORMAL": 1,
            "TEXCOORD_0": 2
          },
          "indices": 3,
          "material": 0
        }
      ]
    }
  ],
  "accessors": [
    {
      "bufferView": 0,
      "componentType": 5126,
      "count": 1490,
      "max": [9.899999618530273, 1, 0],
      "min": [-10, 0, -0.10000000149011612],
      "type": "VEC3"
    },
    {
      "bufferView": 1,
      "componentType": 5126,
      "count": 1490,
      "type": "VEC3"
    },
    {
      "bufferView": 2,
      "componentType": 5126,
      "count": 1490,
      "type": "VEC2"
    },
    {
      "bufferView": 3,
      "componentType": 5123,
      "count": 2364,
      "type": "SCALAR"
    }
  ],
  "bufferViews": [
    {
      "buffer": 0,
      "byteLength": 17880,
      "byteOffset": 0
    },
    {
      "buffer": 0,
      "byteLength": 17880,
      "byteOffset": 17880
    },
    {
      "buffer": 0,
      "byteLength": 11920,
      "byteOffset": 35760
    },
    {
      "buffer": 0,
      "byteLength": 4728,
      "byteOffset": 47680
    }
  ],
  "buffers": [
    {
      "byteLength": 52408,
      "uri": "data:application/octet-stream;base64,"
    }
  ]
}
