{"asset":{"generator":"Khronos glTF Blender I/O v3.6.28","version":"2.0"},"scene":0,"scenes":[{"name":"Scene","nodes":[0]}],"nodes":[{"mesh":0,"name":"coin","rotation":[0.7071068286895752,0,0,0.7071068286895752],"scale":[0.009999999776482582,0.009999999776482582,0.009999999776482582]}],"materials":[{"doubleSided":true,"name":"colormap","pbrMetallicRoughness":{"baseColorTexture":{"index":0},"metallicFactor":0,"roughnessFactor":0.5527864098548889}}],"meshes":[{"name":"Scene","primitives":[{"attributes":{"POSITION":0,"NORMAL":1,"TEXCOORD_0":2},"indices":3,"material":0}]}],"textures":[{"sampler":0,"source":0}],"images":[{"bufferView":4,"mimeType":"image/png","name":"colormap"}],"accessors":[{"bufferView":0,"componentType":5126,"count":244,"max":[20.750003814697266,8.33333683013916,5.504855943370794e-14],"min":[-20.750003814697266,-8.33333683013916,-41.666664123535156],"type":"VEC3"},{"bufferView":1,"componentType":5126,"count":244,"type":"VEC3"},{"bufferView":2,"componentType":5126,"count":244,"type":"VEC2"},{"bufferView":3,"componentType":5123,"count":516,"type":"SCALAR"}],"bufferViews":[{"buffer":0,"byteLength":2928,"byteOffset":0,"target":34962},{"buffer":0,"byteLength":2928,"byteOffset":2928,"target":34962},{"buffer":0,"byteLength":1952,"byteOffset":5856,"target":34962},{"buffer":0,"byteLength":1032,"byteOffset":7808,"target":34963},{"buffer":0,"byteLength":8308,"byteOffset":8840}],"samplers":[{"magFilter":9729,"minFilter":9987}],"buffers":[{"byteLength":17148,"uri":"data:application/octet-stream;base64,"}]}