{"asset":{"version":"2.0","generator":"THREE.GLTFExporter"},"scenes":[{"name":"Scene","nodes":[0,2]}],"scene":0,"nodes":[{"name":"LEVEL_1.obj"},{"matrix":[1,0,0,0,0,1,0,0,0,0,1,0,0,-1,0,1],"mesh":0},{"matrix":[1,0,0,0,0,1,0,0,0,0,1,0,0,1.1687949497287766,0,1],"name":"LEVEL_1.obj","children":[1]}],"bufferViews":[{"buffer":0,"byteOffset":0,"byteLength":28368,"target":34962,"byteStride":12},{"buffer":0,"byteOffset":28368,"byteLength":28368,"target":34962,"byteStride":12},{"buffer":0,"byteOffset":56736,"byteLength":18912,"target":34962,"byteStride":8}],"buffers":[{"byteLength":75648,"uri":"data:application/octet-stream;base64,"}],"accessors":[{"bufferView":0,"componentType":5126,"count":2364,"max":[9.899999618530273,1,0],"min":[-10,0,-0.10000000149011612],"type":"VEC3"},{"bufferView":1,"componentType":5126,"count":2364,"max":[1,1,1],"min":[-1,-1,-1],"type":"VEC3"},{"bufferView":2,"componentType":5126,"count":2364,"max":[0.30664101243019104,0.5],"min":[0.30664101243019104,0.5],"type":"VEC2"}],"materials":[{"pbrMetallicRoughness":{"metallicFactor":0.5,"roughnessFactor":0.5},"name":"palette"}],"meshes":[{"primitives":[{"mode":4,"attributes":{"POSITION":0,"NORMAL":1,"TEXCOORD_0":2},"material":0}]}]}